<?xml version="1.0" standalone="no"?>
<!DOCTYPE svg PUBLIC "-//W3C//DTD SVG 20010904//EN"
 "http://www.w3.org/TR/2001/REC-SVG-20010904/DTD/svg10.dtd">
<svg version="1.0" xmlns="http://www.w3.org/2000/svg"
 width="1575.000000pt" height="2100.000000pt" viewBox="0 0 1575.000000 2100.000000"
 preserveAspectRatio="xMidYMid meet">

<g transform="translate(0.000000,2100.000000) scale(0.100000,-0.100000)"
fill="#000000" stroke="none">
<path d="M0 10818 c0 -8472 2 -10180 13 -10168 14 15 59 74 432 560 120 157
253 330 296 385 116 150 893 1168 1363 1786 450 592 626 823 671 879 48 61
651 844 885 1149 58 76 191 247 295 380 105 134 208 267 229 295 22 28 105
136 185 240 80 104 231 300 334 435 104 135 237 308 295 385 350 455 426 555
1192 1571 141 187 325 430 408 540 514 677 632 837 626 846 -3 6 1 9 9 7 9 -2
42 33 84 87 38 50 149 196 248 325 99 129 183 240 188 245 4 6 55 73 113 150
136 181 231 306 284 375 23 30 37 56 31 58 -6 2 -11 10 -11 19 0 10 6 12 20 8
11 -3 20 -3 20 2 0 4 -100 100 -222 213 -122 113 -263 243 -313 290 -50 47
-155 144 -235 215 -185 166 -249 225 -396 361 -65 61 -168 155 -229 210 -60
54 -148 135 -195 179 -47 44 -106 98 -130 119 -35 31 -193 175 -276 251 -6 6
-107 98 -224 205 -118 107 -257 236 -310 286 -124 119 -264 243 -269 239 -4
-4 301 -303 364 -356 91 -78 312 -305 308 -317 -5 -12 -16 -5 -76 53 -12 11
-38 32 -60 46 -25 18 -34 29 -25 32 7 3 2 6 -10 6 -15 1 -26 9 -29 21 -3 11
-11 20 -19 20 -7 0 -39 25 -71 55 -32 30 -65 55 -74 55 -9 0 -22 7 -29 15 -7
8 -9 15 -4 15 5 0 -7 14 -26 31 -19 18 -36 27 -38 20 -2 -6 -8 -11 -14 -11 -5
0 -6 9 -3 20 4 14 1 22 -11 27 -21 8 -49 35 -57 54 -3 8 -6 9 -6 2 -1 -6 -15
2 -32 18 -17 16 -37 29 -45 29 -8 0 -14 5 -14 10 0 6 -5 10 -12 10 -13 0 -68
59 -68 74 0 5 -7 1 -15 -10 -15 -19 -16 -19 -31 4 -9 12 -21 22 -26 22 -16 0
-68 43 -68 57 0 7 -4 13 -10 13 -5 0 -10 -4 -10 -9 0 -5 -9 -7 -20 -4 -26 7
-15 23 16 23 16 0 23 4 18 11 -4 7 -23 9 -51 5 -38 -5 -44 -3 -42 12 3 36 0
43 -19 33 -20 -11 -72 -10 -72 2 0 4 5 7 10 7 6 0 10 5 10 10 0 6 -7 10 -15
10 -8 0 -15 4 -15 10 0 5 -6 7 -14 4 -8 -3 -23 4 -33 16 -12 12 -26 18 -36 14
-10 -3 -17 -1 -17 5 0 6 -7 11 -15 11 -8 0 -15 6 -15 14 0 9 -8 12 -25 8 -14
-2 -25 0 -25 6 0 6 -18 13 -41 17 -33 6 -43 13 -51 35 -7 21 -18 31 -41 35
-18 4 -42 16 -54 27 l-22 20 6 -23 6 -23 -31 24 c-17 14 -31 29 -31 33 -1 13
-28 37 -41 37 -6 0 -18 -7 -26 -15 -20 -20 -34 -19 -34 3 0 17 -48 45 -72 41
-14 -2 -23 1 -97 33 -28 11 -48 15 -54 9 -6 -6 -17 -2 -30 10 -15 14 -24 16
-34 7 -10 -8 -18 -7 -31 6 -25 22 -91 21 -108 -1 -13 -17 -13 -17 -14 0 0 9
-4 17 -9 17 -5 0 -13 9 -16 20 -4 11 -10 18 -15 15 -4 -3 -10 4 -13 14 -3 12
-18 21 -42 25 -37 7 -37 8 -32 47 4 29 2 39 -9 39 -8 0 -14 -6 -14 -12 0 -7
-4 -19 -9 -26 -7 -12 -12 -12 -30 -1 -11 8 -21 19 -21 26 0 17 -27 17 -32 1
-5 -15 -30 6 -41 35 -4 11 -17 17 -38 17 -22 0 -32 5 -36 20 -3 11 -10 20 -15
20 -6 0 -19 11 -30 25 -14 17 -29 25 -52 25 -18 0 -41 7 -52 15 -10 8 -27 15
-36 15 -10 0 -18 7 -18 15 0 8 -9 20 -20 27 -11 7 -20 18 -20 25 0 7 -8 13
-18 13 -9 0 -23 13 -30 29 -7 16 -29 47 -48 67 -18 21 -34 44 -34 51 0 19 -18
16 -23 -4 -4 -17 -5 -17 -6 0 0 9 -5 17 -11 17 -5 0 -10 8 -10 18 0 26 -11 34
-28 19 -13 -10 -14 -8 -10 16 3 16 1 27 -6 27 -6 0 -17 10 -25 21 -10 17 -15
19 -21 8 -7 -10 -12 -6 -19 14 -6 16 -15 25 -21 22 -6 -4 -10 5 -10 19 0 16
-6 26 -14 26 -21 0 -30 19 -16 35 9 11 7 16 -8 24 -11 6 -23 25 -27 43 -7 33
-7 33 -15 8 l-8 -25 -1 28 c-1 20 -7 31 -22 34 -14 4 -19 11 -16 25 3 12 -2
23 -14 31 -10 6 -19 15 -19 20 0 4 5 5 10 2 21 -13 9 23 -12 38 -19 13 -21 18
-9 26 12 8 9 11 -12 16 -31 8 -31 9 -14 35 8 14 9 23 2 28 -5 4 -10 14 -10 22
0 9 -7 14 -17 12 -19 -3 -25 22 -8 33 7 4 7 12 0 25 -5 10 -10 35 -10 54 0 20
-4 36 -9 36 -12 0 -21 77 -11 109 4 16 3 35 -2 45 -7 12 -4 27 11 52 12 19 21
45 21 58 0 25 54 116 70 116 5 0 10 9 10 20 0 28 10 25 50 -16 19 -20 44 -40
55 -46 19 -10 19 -10 -1 13 -12 13 -32 43 -44 67 -23 41 -23 42 -5 56 16 12
10 13 -51 12 -72 -1 -177 26 -203 52 -9 9 -16 10 -20 3 -12 -20 -34 6 -27 32
4 17 1 31 -9 41 -19 19 -19 26 0 26 8 0 15 4 15 9 0 5 10 11 22 13 14 2 24 12
28 28 3 14 18 31 35 39 16 8 38 24 50 37 12 13 32 24 44 24 12 0 21 6 21 15 0
8 7 15 16 15 9 0 14 6 11 13 -3 8 4 13 22 12 15 0 25 5 24 12 -2 6 6 15 17 18
11 4 25 15 30 26 6 10 17 19 25 19 8 0 15 6 15 13 0 21 78 87 95 81 8 -3 15
-2 15 3 0 18 82 63 115 63 25 0 35 5 40 19 3 11 16 21 28 23 12 2 21 9 20 16
-4 18 25 14 36 -5 10 -18 7 -19 82 16 14 7 44 10 67 8 27 -3 49 1 63 11 18 12
26 13 41 3 14 -9 23 -9 33 -1 10 8 18 4 34 -19 20 -27 24 -29 51 -19 17 5 30
14 30 19 0 12 37 11 61 -1 10 -6 19 -18 19 -28 1 -15 2 -15 11 1 6 10 9 27 6
38 -4 15 0 19 18 19 14 0 26 -7 29 -18 8 -25 81 -53 146 -57 35 -1 69 -11 93
-25 35 -21 40 -21 54 -7 15 15 19 14 45 -4 15 -11 33 -17 39 -14 6 4 35 4 65
0 41 -5 54 -10 54 -23 1 -15 2 -15 11 1 13 21 91 24 108 3 17 -20 51 -28 44
-10 -8 20 47 18 62 -2 11 -15 13 -15 31 4 17 18 25 20 63 11 39 -9 48 -7 82
16 39 25 65 33 54 15 -3 -5 5 -12 19 -16 28 -7 66 3 66 17 0 5 10 9 23 9 18 0
19 -2 7 -10 -12 -8 -13 -10 -1 -10 8 0 22 7 32 16 11 10 42 17 91 19 l73 4
-45 -13 c-25 -8 -81 -24 -125 -36 -44 -12 -100 -28 -125 -35 -25 -8 -135 -39
-245 -69 -294 -83 -308 -87 -303 -91 4 -4 203 45 438 109 69 18 213 57 320 86
107 28 240 64 295 80 55 16 183 52 285 80 102 28 208 57 235 65 28 8 140 39
250 70 1064 298 1835 526 1835 541 0 2 -21 3 -47 2 -47 -3 -88 16 -77 34 3 4
-3 11 -13 14 -10 4 -52 22 -93 41 -41 20 -102 44 -135 55 -33 10 -64 20 -70
22 -5 2 -14 4 -19 4 -5 0 -12 5 -15 11 -4 5 -22 12 -42 14 -19 2 -39 6 -44 9
-6 3 -75 31 -155 63 -80 31 -160 64 -179 72 -18 8 -39 16 -45 17 -12 2 -63 20
-111 41 -16 7 -50 20 -75 28 -25 8 -58 21 -75 27 -16 7 -41 17 -55 22 -14 6
-38 16 -55 23 -16 7 -50 20 -75 28 -85 28 -185 68 -194 77 -6 6 -18 10 -28 10
-10 0 -18 4 -18 9 0 8 -37 24 -52 22 -4 0 -26 6 -50 15 -24 9 -52 17 -62 20
-11 2 -24 8 -30 14 -5 5 -19 10 -31 10 -12 0 -25 4 -30 8 -6 5 -32 17 -60 27
-54 19 -129 51 -157 66 -10 5 -25 9 -34 9 -9 0 -22 6 -28 14 -6 7 -50 26 -98
41 -49 15 -88 32 -88 37 0 6 -7 8 -15 4 -15 -6 -87 22 -93 37 -2 4 -8 5 -13 1
-8 -5 -54 14 -155 62 -17 9 -38 16 -46 18 -9 1 -23 8 -31 14 -8 7 -31 16 -51
19 -20 3 -41 12 -47 19 -6 8 -20 14 -30 14 -10 0 -21 5 -24 10 -3 6 -14 10
-23 10 -15 0 -88 27 -179 66 -17 8 -35 14 -41 14 -5 0 -39 14 -75 30 -37 17
-73 30 -82 30 -8 0 -15 3 -15 8 0 6 -27 17 -85 36 -16 5 -47 17 -92 37 -23 11
-51 19 -62 19 -11 0 -23 5 -26 10 -3 6 -12 10 -20 10 -7 0 -35 10 -62 22 -26
12 -51 22 -55 22 -3 1 -10 4 -14 9 -4 4 -14 7 -23 7 -9 0 -54 15 -101 34 -149
61 -269 106 -280 106 -6 0 -18 4 -28 9 -29 16 -106 48 -132 56 -14 4 -38 13
-55 20 -60 26 -644 255 -649 255 -4 0 -84 30 -179 66 -94 37 -207 80 -250 95
-43 16 -92 35 -110 43 -50 21 -143 57 -158 60 -8 1 -32 11 -54 20 -22 10 -60
26 -85 36 -25 9 -164 63 -310 120 -544 211 -730 283 -920 355 -204 77 -424
165 -525 210 l-60 26 24 20 c13 10 31 19 40 19 9 0 22 5 29 12 7 7 42 13 78
15 54 2 85 -4 168 -32 55 -20 110 -40 121 -45 11 -5 121 -50 245 -99 124 -49
317 -126 430 -171 113 -46 250 -100 305 -121 145 -54 257 -98 280 -109 11 -5
74 -30 140 -56 66 -25 203 -79 305 -119 316 -126 538 -212 1055 -410 198 -75
380 -145 405 -155 187 -73 294 -115 420 -164 80 -32 244 -95 365 -141 121 -45
328 -124 460 -175 132 -50 323 -123 425 -162 102 -38 194 -74 205 -79 46 -20
409 -149 421 -149 8 0 14 -3 14 -8 0 -4 26 -17 58 -28 31 -12 95 -35 142 -53
47 -17 99 -36 115 -42 33 -13 41 -15 68 -17 10 -1 16 -6 13 -10 -2 -4 16 -14
42 -21 26 -8 52 -17 57 -21 6 -5 46 -20 90 -35 44 -14 98 -35 120 -45 35 -17
162 -66 175 -68 3 -1 23 -8 44 -17 22 -9 49 -18 61 -19 12 -1 41 -12 64 -24
23 -12 48 -22 57 -22 8 0 33 -9 55 -19 22 -11 54 -23 72 -27 17 -3 41 -13 52
-20 11 -7 63 -27 115 -44 52 -17 106 -36 120 -44 33 -17 80 -30 104 -27 11 2
16 -2 12 -8 -7 -11 11 -16 52 -12 12 1 22 -3 22 -9 0 -14 78 -9 84 5 3 9 17
10 47 5 25 -5 54 -4 68 2 14 5 68 11 118 13 51 2 101 9 112 14 14 8 22 7 30
-3 19 -23 -4 -34 -181 -86 -43 -13 -78 -26 -78 -31 0 -4 8 -5 18 -3 260 61
532 128 747 184 149 39 394 102 545 141 538 139 726 187 800 207 41 12 136 36
210 56 74 19 232 60 350 91 204 53 575 150 885 230 77 20 196 51 265 70 150
41 866 232 1070 286 167 43 297 78 535 144 94 25 193 53 220 60 28 7 226 61
440 119 215 57 458 123 540 145 83 23 281 77 440 120 160 44 309 85 333 91
l42 11 0 659 0 660 -7875 0 -7875 0 0 -10182z m5557 6106 c-3 -3 -12 -4 -19
-1 -8 3 -5 6 6 6 11 1 17 -2 13 -5z m-217 -54 c0 -5 -10 -10 -22 -10 -19 0
-20 2 -8 10 19 13 30 13 30 0z m-2143 -1842 c-3 -8 -6 -5 -6 6 -1 11 2 17 5
13 3 -3 4 -12 1 -19z m963 -628 c0 -5 -8 -10 -17 -10 -15 0 -16 2 -3 10 19 12
20 12 20 0z m192 -52 c-9 -9 -15 -9 -24 0 -9 9 -7 12 12 12 19 0 21 -3 12 -12z
m208 -58 c0 -5 -9 -10 -21 -10 -11 0 -17 5 -14 10 3 6 13 10 21 10 8 0 14 -4
14 -10z m25 -41 c11 -17 -1 -21 -15 -4 -8 9 -8 15 -2 15 6 0 14 -5 17 -11z
m1537 -986 c10 -9 18 -22 18 -30 0 -7 4 -13 9 -13 5 0 12 -8 15 -17 3 -10 -7
-3 -24 15 -16 17 -34 32 -40 32 -5 0 -10 7 -10 15 0 19 9 19 32 -2z m191 -183
c15 -13 27 -33 26 -44 0 -15 -2 -16 -6 -6 -9 24 -45 60 -54 54 -5 -3 -17 0
-26 6 -17 11 -17 11 0 6 9 -3 17 -1 17 4 0 6 -5 10 -10 10 -15 0 -80 67 -80
81 0 7 24 -10 53 -38 28 -27 64 -60 80 -73z m87 -85 c31 -35 32 -37 5 -15 -50
42 -54 47 -48 54 4 3 7 5 7 3 1 -1 17 -20 36 -42z m140 -125 c0 -5 -2 -10 -4
-10 -3 0 -8 5 -11 10 -3 6 -1 10 4 10 6 0 11 -4 11 -10z m31 -27 c13 -16 12
-17 -3 -4 -17 13 -22 21 -14 21 2 0 10 -8 17 -17z m254 -241 c-3 -3 -11 0 -18
7 -9 10 -8 11 6 5 10 -3 15 -9 12 -12z m525 -462 c8 -5 12 -11 10 -14 -3 -2
-14 2 -24 10 -22 15 -10 19 14 4z m45 -48 c-3 -3 -11 0 -18 7 -9 10 -8 11 6 5
10 -3 15 -9 12 -12z m-195 -1989 c-1 -13 -40 -56 -46 -50 -3 3 5 17 17 31 24
27 29 31 29 19z"/>
<path d="M15705 19519 c-16 -5 -88 -25 -160 -44 -71 -19 -157 -41 -190 -50
-33 -9 -69 -18 -80 -20 -11 -3 -31 -9 -45 -14 -14 -5 -45 -14 -70 -21 -25 -7
-65 -19 -90 -26 -25 -8 -88 -25 -140 -38 -52 -14 -144 -38 -205 -54 -60 -16
-164 -44 -229 -61 -66 -18 -129 -37 -140 -43 -12 -7 -33 -11 -48 -10 -16 1
-28 -2 -28 -7 0 -5 -12 -11 -27 -14 -16 -3 -46 -10 -68 -16 -22 -5 -62 -15
-90 -21 -57 -13 -65 -15 -85 -23 -8 -3 -69 -19 -135 -37 -66 -17 -127 -34
-135 -37 -8 -4 -22 -7 -30 -9 -23 -3 -313 -74 -330 -81 -8 -3 -21 -7 -29 -9
-8 -1 -26 -6 -40 -9 -14 -4 -26 -6 -26 -5 0 1 -13 -4 -30 -11 -16 -6 -46 -15
-65 -20 -61 -13 -293 -77 -340 -92 -25 -8 -63 -18 -85 -23 -55 -10 -50 -9
-150 -34 -50 -12 -126 -35 -170 -50 -44 -16 -102 -32 -130 -35 -27 -4 -54 -11
-60 -15 -8 -7 -64 -21 -95 -25 -3 0 -9 -3 -15 -6 -5 -3 -41 -14 -80 -24 -38
-9 -79 -21 -90 -26 -11 -5 -31 -11 -45 -13 -14 -3 -41 -10 -60 -15 -148 -40
-195 -53 -201 -56 -3 -3 -25 -7 -48 -10 -23 -3 -50 -9 -60 -15 -10 -5 -36 -14
-57 -19 -56 -13 -180 -47 -244 -66 -30 -9 -64 -18 -75 -20 -17 -3 -70 -17
-155 -39 -8 -2 -49 -14 -90 -25 -41 -11 -115 -30 -165 -42 -49 -12 -99 -25
-110 -30 -11 -4 -41 -10 -67 -14 -26 -3 -50 -10 -53 -16 -4 -5 -11 -7 -16 -3
-5 3 -15 1 -22 -4 -7 -5 -30 -12 -52 -16 -22 -4 -51 -11 -65 -16 -14 -4 -69
-19 -122 -31 -54 -12 -98 -26 -98 -31 0 -4 -15 -8 -32 -8 -18 0 -41 -7 -51
-15 -11 -7 -25 -11 -33 -8 -13 5 -123 -19 -173 -39 -14 -5 -27 -9 -28 -9 -2 0
-17 -5 -35 -10 -18 -5 -55 -14 -83 -19 -62 -12 -154 -39 -177 -51 -10 -5 -30
-9 -46 -9 -15 0 -33 -5 -38 -10 -11 -11 -23 -14 -98 -25 -26 -4 -48 -11 -51
-15 -3 -4 -34 -14 -70 -21 -36 -7 -65 -17 -65 -22 0 -5 -7 -7 -15 -3 -13 4
-45 -3 -95 -21 -22 -9 -41 -13 -76 -17 -17 -1 -36 -6 -42 -10 -22 -13 -106
-35 -114 -30 -5 3 -18 -2 -29 -12 -10 -9 -19 -12 -19 -6 0 14 -25 6 -62 -20
-14 -10 -40 -21 -57 -24 -45 -9 -41 -38 10 -58 46 -19 45 -41 -2 -24 -16 6
-32 8 -35 5 -3 -3 14 -11 38 -18 23 -7 52 -18 63 -25 27 -17 183 -81 389 -161
149 -57 215 -84 343 -139 17 -8 33 -14 36 -14 3 0 18 -5 34 -12 15 -6 30 -12
33 -13 13 -4 62 -26 125 -55 75 -34 220 -94 535 -222 311 -126 320 -129 314
-113 -6 14 -18 19 -38 16 -5 -1 -20 8 -34 21 -14 13 -22 17 -18 11 10 -18 -9
-16 -28 2 -8 8 -19 15 -25 15 -6 0 -11 5 -11 11 0 5 -4 8 -8 5 -4 -2 -30 9
-57 25 -49 28 -49 29 -15 22 19 -3 52 -12 74 -20 21 -7 49 -13 62 -13 12 0 25
-4 28 -9 3 -5 15 -7 27 -4 12 3 24 1 28 -5 4 -6 39 -12 79 -14 40 -2 67 -5 62
-6 -14 -5 -2 -22 16 -22 8 0 14 7 14 16 0 13 3 14 14 5 8 -7 34 -10 64 -7 38
3 52 1 56 -10 3 -9 10 -12 16 -9 5 3 10 1 10 -5 0 -13 52 -2 62 14 4 6 8 21 8
34 0 14 4 21 11 17 6 -4 8 -13 5 -20 -3 -8 2 -11 14 -8 14 4 21 -2 26 -22 l7
-28 12 23 c9 17 14 19 18 9 5 -12 7 -12 16 1 7 10 7 17 -1 21 -14 9 15 16 81
18 62 2 87 22 69 54 -5 10 -7 21 -4 24 3 3 8 -2 12 -11 6 -15 7 -15 20 1 11
15 16 16 34 5 18 -11 28 -10 66 8 32 16 52 20 72 14 15 -4 30 -7 35 -6 4 1 7
-5 7 -14 0 -13 6 -15 33 -9 48 11 170 12 185 2 7 -6 12 -5 12 2 0 15 37 14 42
0 3 -9 10 -9 27 0 20 11 26 10 45 -8 12 -12 26 -21 30 -21 4 0 14 -7 22 -15 9
-8 11 -15 5 -15 -6 0 -11 -4 -11 -10 0 -5 9 -10 20 -10 13 0 20 -7 20 -20 0
-24 13 -26 34 -5 14 14 16 13 22 -10 3 -14 12 -25 18 -25 7 0 25 -13 41 -30
16 -16 37 -30 47 -30 10 0 19 -8 20 -17 0 -10 2 -24 2 -31 1 -7 8 -17 16 -22
8 -5 15 -19 15 -31 0 -14 11 -28 33 -39 19 -10 41 -25 51 -34 10 -9 23 -16 29
-16 7 0 17 -9 24 -20 7 -11 17 -20 23 -20 6 0 15 -10 20 -22 6 -13 17 -22 24
-20 8 2 21 0 30 -3 13 -5 14 -7 1 -15 -13 -8 -12 -10 2 -10 10 0 24 -15 34
-35 19 -41 34 -54 34 -29 0 10 2 15 5 12 3 -3 1 -23 -4 -44 -6 -28 -9 -32 -10
-15 -1 17 -4 22 -11 15 -7 -7 -8 -19 -1 -37 8 -21 7 -25 -4 -20 -8 3 -15 0
-15 -6 0 -6 8 -11 17 -11 9 0 13 -3 9 -7 -7 -8 -11 -9 -37 -12 -5 0 -7 -5 -4
-11 3 -6 -5 -10 -18 -10 -14 0 -28 -7 -31 -15 -3 -9 -11 -15 -18 -13 -7 1 -49
-3 -93 -10 -44 -7 -95 -15 -112 -18 -29 -4 -33 -9 -33 -34 0 -27 2 -28 35 -23
30 5 35 3 35 -14 0 -16 6 -20 25 -17 17 1 29 -4 37 -19 6 -12 22 -30 35 -40
12 -10 23 -27 23 -38 0 -10 4 -19 10 -19 5 0 15 -18 21 -40 7 -22 15 -40 18
-40 3 0 7 -26 7 -57 1 -39 7 -60 18 -68 8 -7 13 -15 9 -19 -13 -12 -13 -50 -1
-57 9 -6 9 -11 0 -22 -6 -7 -13 -53 -14 -100 -2 -65 -6 -87 -17 -87 -8 0 -11
-6 -7 -16 3 -8 -1 -26 -10 -39 -10 -16 -14 -34 -10 -50 6 -25 -8 -36 -17 -12
-3 7 -6 6 -6 -5 -1 -9 4 -20 9 -23 6 -3 10 -12 9 -18 0 -9 -2 -9 -6 1 -8 20
-20 14 -32 -17 -7 -16 -22 -33 -34 -39 -12 -6 -17 -11 -10 -11 8 -1 4 -17 -12
-47 -14 -26 -25 -54 -25 -63 0 -10 -5 -22 -12 -29 -9 -9 -8 -12 8 -12 16 0 15
-2 -6 -13 -14 -7 -29 -22 -35 -34 -5 -13 -20 -23 -35 -25 -19 -2 -26 -10 -28
-30 -2 -16 -7 -28 -12 -28 -5 0 -12 -9 -15 -20 -3 -11 -13 -20 -20 -20 -10 0
-12 -9 -8 -34 6 -36 -9 -55 -31 -37 -17 14 -66 -8 -66 -31 0 -23 -20 -34 -32
-17 -7 10 -8 6 -4 -13 6 -26 4 -28 -24 -28 -27 0 -30 -2 -20 -19 15 -28 13
-33 -12 -29 -18 2 -23 -2 -22 -18 0 -17 -4 -20 -25 -16 -24 5 -25 4 -12 -12
11 -13 12 -19 2 -29 -10 -9 -15 -8 -25 5 -11 15 -17 12 -57 -33 -46 -52 -57
-56 -89 -37 -16 10 -22 9 -39 -11 -11 -12 -22 -28 -25 -34 -5 -9 -8 -9 -12 1
-7 14 -34 17 -34 3 0 -5 6 -12 13 -14 6 -3 -2 -3 -19 0 -28 4 -32 2 -37 -26
-6 -31 -32 -43 -40 -18 -2 6 -2 2 0 -10 4 -28 -13 -31 -20 -3 -3 11 -12 20
-21 20 -23 0 -20 -37 4 -43 31 -8 23 -27 -12 -29 -18 -1 -40 -2 -48 -4 -8 -1
-21 -2 -28 -3 -7 -1 -11 -5 -7 -11 3 -5 -12 -14 -34 -21 -28 -8 -43 -20 -52
-40 -13 -33 -34 -40 -26 -9 3 11 1 23 -4 26 -5 3 -9 -5 -9 -18 0 -36 -15 -54
-33 -39 -11 9 -17 9 -22 1 -4 -7 -15 -10 -25 -7 -27 7 -52 -12 -45 -34 4 -11
2 -19 -4 -19 -6 0 -11 7 -11 16 0 10 -7 14 -22 12 -13 -2 -23 -10 -23 -18 0
-10 -10 -15 -29 -15 -20 -1 -32 -8 -39 -23 -11 -23 -31 -29 -42 -12 -3 6 -1
10 5 10 6 0 8 5 4 11 -4 7 -9 7 -13 2 -3 -5 -14 -12 -23 -16 -27 -10 -23 -40
3 -32 15 5 20 3 17 -6 -2 -7 -14 -13 -27 -14 -13 -1 -26 -6 -29 -11 -4 -6 -23
-11 -41 -12 -19 -2 -37 -5 -40 -9 -4 -3 9 -4 27 -1 37 5 38 4 13 -21 -13 -13
-22 -16 -29 -9 -16 16 -31 1 -25 -25 4 -17 2 -19 -6 -7 -8 12 -13 10 -32 -14
-12 -15 -31 -36 -41 -46 -11 -10 -16 -24 -12 -33 3 -10 1 -17 -5 -17 -6 0 -11
5 -11 10 0 6 -4 10 -9 10 -4 0 -6 -11 -3 -25 4 -21 1 -25 -19 -25 -17 0 -32
-12 -52 -45 -16 -25 -34 -45 -40 -45 -7 0 -25 -18 -41 -40 -17 -22 -36 -40
-43 -40 -8 0 -16 -13 -19 -29 -4 -17 -12 -32 -20 -35 -17 -7 -19 -36 -2 -36
24 0 -8 -20 -36 -22 -21 -2 -26 -7 -23 -20 4 -13 -2 -20 -19 -24 -16 -4 -33
-21 -45 -46 -11 -22 -29 -43 -40 -45 -10 -3 -19 -12 -19 -19 0 -8 -7 -17 -15
-20 -8 -4 -15 -12 -15 -19 0 -7 -7 -19 -16 -26 -9 -7 -20 -24 -25 -37 -6 -14
-15 -22 -23 -19 -7 3 -13 0 -13 -6 1 -34 -4 -48 -14 -41 -12 7 -49 -32 -75
-80 -20 -35 -59 -76 -74 -76 -6 0 -8 -4 -5 -10 3 -5 1 -10 -4 -10 -6 0 -11 -6
-11 -14 0 -8 -16 -31 -35 -52 -19 -22 -35 -42 -35 -46 0 -4 -7 -4 -17 -1 -10
4 -14 2 -10 -4 4 -6 0 -16 -8 -23 -8 -7 -15 -23 -15 -36 0 -13 -4 -24 -9 -24
-14 0 -71 -63 -71 -77 0 -7 -4 -13 -10 -13 -5 0 -10 -6 -10 -14 0 -8 -9 -18
-20 -21 -11 -4 -18 -10 -16 -13 6 -10 -16 -37 -37 -45 -10 -4 -15 -11 -12 -17
3 -5 1 -10 -4 -10 -6 0 -11 -7 -11 -15 0 -8 -6 -15 -14 -15 -7 0 -19 -13 -26
-30 -7 -16 -16 -27 -21 -24 -5 3 -14 -7 -19 -21 -6 -14 -24 -38 -40 -52 -17
-13 -28 -29 -25 -33 3 -5 -4 -11 -15 -15 -11 -4 -27 -20 -36 -37 -8 -16 -18
-27 -21 -24 -3 3 -21 -15 -40 -39 -19 -25 -38 -45 -43 -45 -6 0 -10 -6 -10
-13 0 -11 -47 -58 -74 -74 -10 -6 24 38 49 62 9 8 26 39 44 80 5 11 -59 -56
-74 -78 -5 -8 -34 -47 -63 -87 -28 -40 -50 -76 -47 -79 3 -2 13 5 21 18 34 48
63 76 64 61 0 -8 -22 -43 -50 -77 -27 -34 -50 -64 -50 -67 0 -10 -40 -46 -51
-46 -6 0 -8 9 -3 23 10 32 -57 -40 -101 -109 -41 -63 -42 -69 -15 -52 11 7 20
18 20 24 0 6 7 18 16 25 15 12 16 11 9 -11 -4 -14 -15 -32 -24 -41 -9 -8 -27
-30 -41 -49 -14 -18 -37 -45 -51 -60 -15 -14 -29 -35 -31 -45 -2 -13 -11 -20
-25 -19 -12 0 -20 -3 -17 -8 10 -16 -7 -50 -23 -44 -10 4 -13 2 -10 -8 3 -8
-2 -24 -12 -35 -11 -12 -29 -37 -42 -56 -13 -19 -27 -35 -31 -35 -5 0 -8 -5
-8 -11 0 -6 -9 -18 -21 -27 -11 -10 -21 -24 -22 -32 -2 -8 -6 -21 -10 -28 -5
-7 -7 -22 -6 -35 1 -12 -1 -30 -5 -39 -6 -13 16 -39 89 -110 54 -51 105 -96
114 -100 9 -4 13 -7 9 -7 -10 -1 199 -201 282 -271 30 -25 62 -52 71 -62 10
-9 20 -14 23 -11 3 4 6 -1 6 -11 0 -9 5 -14 10 -11 5 3 10 1 10 -5 0 -12 49
-61 154 -153 90 -79 116 -106 116 -123 0 -10 6 -14 15 -10 10 3 17 -3 21 -19
3 -14 13 -25 21 -25 9 0 37 -22 63 -50 26 -27 54 -50 61 -50 11 0 11 -2 -1
-10 -13 -8 -13 -10 1 -10 9 0 19 -7 23 -15 3 -8 12 -12 21 -9 8 3 15 1 15 -6
0 -6 -4 -8 -10 -5 -5 3 -10 2 -10 -3 0 -10 25 -23 36 -19 3 1 10 -6 15 -15 6
-10 17 -18 24 -18 8 0 15 -8 15 -17 0 -23 49 -73 66 -66 9 3 14 -1 14 -12 0
-9 21 -35 47 -58 26 -23 92 -85 147 -138 201 -191 242 -229 311 -288 22 -19
96 -86 165 -151 69 -64 157 -143 195 -175 39 -32 79 -68 91 -79 11 -12 36 -34
55 -51 53 -47 252 -231 534 -495 228 -214 329 -304 406 -367 90 -73 104 -86
291 -268 67 -67 163 -157 212 -200 49 -44 139 -128 200 -186 61 -59 174 -161
251 -229 77 -67 199 -178 270 -245 209 -196 255 -238 355 -325 52 -45 113 -99
135 -119 306 -280 620 -566 709 -645 61 -54 152 -136 201 -181 50 -45 110 -99
135 -121 24 -21 51 -46 60 -54 9 -8 47 -42 85 -75 39 -33 101 -89 140 -125 38
-36 74 -69 81 -75 113 -97 423 -394 436 -419 8 -15 2 -25 -32 -58 -35 -34 -45
-39 -64 -30 -22 10 -148 121 -361 317 -66 61 -192 176 -280 255 -140 126 -511
466 -525 480 -4 4 -152 139 -270 246 -147 134 -665 607 -715 655 -33 31 -80
74 -105 95 -85 74 -537 485 -800 729 -142 132 -295 272 -355 325 -33 29 -87
78 -120 109 -33 31 -94 88 -135 126 -41 37 -97 89 -125 115 -27 25 -149 136
-270 245 -121 110 -274 249 -340 310 -167 153 -336 308 -349 320 -77 69 -245
223 -296 271 -36 33 -144 132 -240 219 -96 88 -227 206 -290 264 -63 58 -162
149 -219 201 -58 52 -195 178 -305 280 -111 102 -223 205 -251 230 -27 25
-106 97 -175 160 -335 307 -326 299 -336 282 -8 -12 -4 -22 18 -43 31 -29 23
-48 -11 -29 -16 8 -28 3 -65 -28 -24 -20 -45 -42 -45 -48 -1 -7 -8 -14 -16
-18 -8 -3 -15 -11 -15 -17 0 -16 -57 -79 -64 -71 -4 3 -9 -3 -12 -15 -3 -12
-14 -23 -24 -26 -10 -3 -30 -22 -43 -44 -14 -22 -31 -46 -39 -54 -8 -8 -22
-30 -31 -49 -25 -48 -62 -98 -92 -124 -14 -12 -25 -30 -25 -39 0 -10 -4 -16
-8 -13 -12 7 -52 -31 -52 -49 0 -8 -7 -15 -16 -15 -10 0 -14 -6 -11 -14 3 -8
2 -16 -2 -18 -5 -2 -20 -23 -33 -47 -13 -23 -29 -43 -34 -43 -14 1 -44 -30
-44 -45 0 -7 -5 -13 -11 -13 -6 0 -9 -6 -6 -13 3 -8 -17 -38 -44 -67 -27 -29
-49 -58 -49 -63 0 -5 -11 -18 -25 -29 -14 -11 -25 -25 -25 -33 0 -7 -11 -20
-25 -29 -14 -9 -24 -20 -21 -25 3 -4 -6 -15 -20 -25 -13 -11 -24 -25 -24 -32
0 -8 -7 -14 -15 -14 -8 0 -15 -7 -15 -15 0 -7 -7 -18 -15 -23 -9 -4 -17 -18
-18 -30 -1 -14 -6 -21 -14 -18 -7 3 -12 2 -10 -2 1 -4 -12 -21 -28 -37 -17
-17 -52 -59 -77 -95 -26 -36 -58 -78 -72 -95 -14 -16 -30 -35 -36 -42 -5 -7
-10 -17 -10 -23 0 -5 -4 -10 -10 -10 -5 0 -10 -5 -10 -11 0 -6 -15 -28 -32
-49 -18 -20 -44 -52 -58 -70 -14 -18 -38 -49 -55 -69 -16 -21 -41 -53 -55 -71
-14 -18 -38 -50 -55 -71 -51 -63 -341 -446 -522 -689 -65 -86 -69 -92 -113
-146 -14 -17 -35 -44 -47 -60 -81 -109 -397 -528 -403 -534 -3 -3 -21 -25 -40
-50 -19 -25 -37 -47 -41 -50 -3 -3 -35 -45 -70 -95 -35 -49 -96 -133 -136
-185 -41 -52 -99 -129 -130 -170 -31 -41 -70 -91 -87 -111 -33 -38 -81 -101
-229 -300 -90 -122 -152 -202 -172 -225 -5 -6 -23 -29 -40 -50 -16 -21 -48
-61 -70 -89 -23 -27 -90 -115 -149 -195 -60 -80 -130 -170 -155 -200 -44 -51
-108 -134 -157 -201 -25 -34 -35 -47 -163 -214 -56 -71 -138 -179 -185 -240
-46 -60 -117 -151 -157 -202 -41 -50 -90 -115 -109 -143 -19 -28 -40 -57 -45
-63 -6 -7 -77 -99 -158 -204 -82 -106 -154 -199 -161 -205 -11 -12 -221 -286
-319 -418 -23 -30 -72 -96 -109 -146 -37 -49 -68 -96 -68 -102 0 -7 -3 -12 -8
-12 -4 0 -25 -23 -47 -51 -22 -28 -50 -63 -62 -78 -12 -14 -41 -52 -65 -83
-162 -214 -272 -355 -337 -433 -42 -50 -96 -119 -121 -153 -25 -34 -84 -113
-132 -175 -85 -108 -235 -304 -406 -530 -45 -60 -118 -154 -162 -210 -95 -121
-400 -518 -630 -822 -91 -120 -206 -270 -255 -334 -50 -64 -155 -201 -235
-306 -193 -253 -236 -310 -292 -383 l-48 -60 0 -201 0 -201 7875 0 7875 0 0
9765 c0 5371 -3 9765 -7 9764 -5 0 -21 -5 -38 -10z m-6395 -2210 c0 -6 9 -9
19 -6 13 3 18 1 14 -9 -4 -10 -10 -10 -29 -2 -24 11 -33 28 -14 28 6 0 10 -5
10 -11z m369 -153 c10 -12 8 -13 -8 -9 -12 3 -21 9 -21 14 0 14 16 11 29 -5z
m561 -216 c0 -13 -11 -13 -30 0 -12 8 -11 10 8 10 12 0 22 -4 22 -10z m47 -26
c-3 -3 -12 -4 -19 -1 -8 3 -5 6 6 6 11 1 17 -2 13 -5z m1858 -304 c3 -5 -1
-10 -9 -10 -9 0 -16 5 -16 10 0 6 4 10 9 10 6 0 13 -4 16 -10z m-860 -2230 c3
-6 -1 -7 -9 -4 -18 7 -21 14 -7 14 6 0 13 -4 16 -10z m-3202 -3475 c-3 -9 -8
-14 -10 -11 -3 3 -2 9 2 15 9 16 15 13 8 -4z"/>
<path d="M8279 17505 c-3 -2 -27 -6 -54 -9 -27 -2 -51 -9 -53 -15 -2 -6 -12
-11 -22 -11 -10 0 -79 -16 -154 -35 -75 -19 -148 -35 -161 -35 -13 0 -27 -4
-30 -10 -3 -5 -15 -10 -26 -10 -10 0 -19 -3 -19 -8 0 -7 -45 -21 -140 -43 -25
-6 -54 -14 -65 -18 -11 -5 -32 -9 -47 -10 -15 0 -43 -10 -63 -21 -20 -11 -49
-22 -66 -24 -16 -1 -32 -6 -36 -9 -3 -4 -16 -7 -27 -7 -12 0 -46 -9 -76 -21
-30 -12 -84 -28 -120 -36 -36 -8 -80 -21 -98 -29 -18 -8 -39 -14 -47 -14 -8 0
-15 -4 -15 -9 0 -5 -30 -13 -66 -16 -42 -5 -64 -11 -61 -19 3 -7 -12 -11 -40
-12 -25 -1 -49 -6 -55 -12 -6 -6 -17 -8 -24 -5 -8 3 -21 -1 -30 -8 -8 -7 -34
-16 -57 -20 -71 -12 -99 -20 -118 -29 -10 -6 -27 -10 -38 -10 -12 0 -21 -4
-21 -9 0 -5 -25 -13 -55 -16 -30 -4 -58 -11 -61 -16 -3 -5 -14 -9 -25 -9 -10
0 -19 -4 -19 -10 0 -5 -16 -10 -35 -10 -20 0 -62 -11 -95 -24 -32 -13 -61 -22
-64 -19 -2 3 -22 -1 -43 -8 -41 -14 -47 -16 -64 -18 -8 -1 -8 -6 1 -16 15 -18
-1 -20 -18 -3 -9 9 -17 9 -36 -1 -13 -8 -30 -10 -36 -6 -7 4 -16 2 -20 -5 -4
-7 -28 -15 -51 -17 -29 -3 -50 -11 -62 -26 -13 -15 -20 -18 -24 -9 -6 14 -33
16 -33 2 0 -5 -9 -14 -20 -20 -16 -9 -18 -8 -14 5 8 20 0 19 -21 -2 -10 -9
-24 -17 -34 -18 -42 -4 -88 -19 -112 -38 -17 -12 -36 -18 -48 -14 -12 3 -21 2
-21 -3 0 -4 -9 -10 -20 -13 -11 -3 -18 -1 -14 4 14 23 -56 -7 -73 -31 -8 -11
-20 -17 -28 -14 -9 4 -15 0 -15 -9 0 -8 -12 -18 -27 -22 -21 -5 -24 -8 -12
-16 10 -6 6 -9 -16 -9 -24 0 -33 -6 -43 -30 -18 -39 -32 -38 -32 2 l0 32 -21
-22 c-11 -13 -19 -28 -17 -34 5 -13 -25 -44 -65 -71 -15 -9 -27 -23 -27 -31 0
-18 -33 -46 -53 -46 -11 0 -17 -8 -17 -23 0 -20 -4 -23 -28 -19 -18 2 -35 -2
-45 -12 -18 -18 -37 -21 -37 -6 0 16 -20 12 -47 -10 -15 -11 -34 -18 -44 -15
-9 3 -20 1 -24 -5 -3 -5 -19 -10 -36 -10 -16 0 -29 -5 -29 -11 0 -8 -4 -8 -14
0 -11 10 -25 9 -59 -3 -103 -35 -600 -68 -1116 -75 -35 -1 -62 -4 -59 -7 10
-10 150 -36 318 -60 93 -13 116 -18 125 -24 6 -4 35 -10 65 -13 31 -4 74 -16
97 -27 23 -11 53 -20 67 -20 14 0 28 -4 31 -10 3 -5 19 -10 34 -10 15 0 32 -5
38 -11 7 -7 28 -13 48 -16 20 -2 51 -10 68 -18 30 -13 30 -14 5 -9 -16 4 -28
4 -28 1 0 -7 136 -39 164 -39 13 0 26 -9 32 -21 5 -12 32 -30 60 -42 28 -11
52 -23 53 -27 0 -5 1 -11 1 -15 0 -5 7 0 14 10 13 16 14 16 19 -4 4 -13 10
-18 17 -14 7 4 17 1 22 -6 8 -11 11 -11 15 -1 4 10 8 10 18 2 8 -6 12 -17 9
-24 -3 -7 1 -13 8 -14 27 -2 90 -30 99 -43 5 -8 9 -10 9 -5 0 5 12 -4 27 -21
16 -16 36 -33 46 -36 9 -4 17 -11 17 -17 0 -5 10 -10 23 -10 12 0 41 -17 64
-38 24 -22 46 -35 51 -30 5 5 20 -2 35 -16 14 -13 29 -21 32 -17 7 6 35 -27
35 -41 0 -4 -10 -8 -22 -9 -18 0 -16 -3 11 -13 19 -7 36 -17 39 -24 2 -6 10
-8 17 -6 9 4 16 -3 21 -20 4 -17 13 -26 25 -26 14 0 21 -9 26 -31 5 -26 9 -30
29 -25 20 5 27 1 41 -29 9 -19 21 -35 26 -35 5 0 6 -7 3 -15 -3 -9 1 -18 9
-21 9 -4 15 -19 15 -41 0 -26 5 -36 20 -40 11 -3 20 -11 20 -18 0 -7 13 -15
29 -18 29 -6 49 -42 27 -51 -6 -3 -2 -4 9 -3 15 2 19 9 17 27 -2 19 0 21 6 10
10 -15 1 -100 -12 -132 -11 -24 25 -40 79 -36 24 2 45 -1 46 -7 0 -5 5 -18 10
-28 13 -23 0 -46 -13 -23 -5 8 -18 20 -28 26 -18 10 -20 7 -20 -30 0 -30 4
-40 16 -40 9 0 13 -5 10 -12 -3 -7 -9 -21 -12 -30 -3 -9 -15 -18 -27 -20 -31
-5 -33 -46 -2 -54 29 -7 33 -20 7 -28 -14 -5 -16 -15 -14 -51 3 -30 9 -45 18
-45 8 0 14 -7 14 -15 0 -18 -12 -19 -28 -3 -16 16 -26 4 -10 -14 22 -24 38
-56 28 -60 -5 -2 -10 -16 -12 -33 -2 -23 1 -30 17 -33 11 -2 26 -11 32 -20 18
-22 -2 -43 -36 -37 -14 3 -19 2 -11 -2 17 -7 60 -54 60 -65 0 -4 -4 -10 -10
-13 -13 -8 -13 -25 1 -25 18 0 41 -29 33 -42 -13 -21 -12 -46 3 -41 7 3 13 -2
13 -11 0 -9 6 -13 15 -10 9 4 16 -3 21 -22 4 -16 15 -37 25 -48 12 -12 17 -27
13 -43 -4 -16 -2 -23 8 -23 9 0 34 -27 57 -60 39 -55 51 -65 75 -61 5 1 6 -10
4 -24 -3 -16 -1 -25 7 -25 20 0 43 -32 28 -37 -20 -7 -15 -23 7 -23 11 0 30
-10 42 -22 13 -13 29 -22 35 -20 7 2 13 -4 13 -13 0 -8 9 -15 20 -15 21 0 27
-19 10 -36 -7 -7 7 -23 45 -50 30 -21 55 -44 55 -50 0 -7 7 -14 15 -18 8 -3
15 -12 15 -21 0 -8 8 -15 18 -15 11 0 24 -13 33 -32 15 -35 35 -47 42 -26 2 7
3 5 1 -5 -1 -10 6 -27 16 -37 10 -10 24 -28 30 -40 6 -12 18 -19 25 -16 9 3
16 -5 20 -25 5 -20 13 -29 26 -29 11 0 22 -7 25 -15 4 -8 12 -15 20 -15 8 0
14 -5 14 -11 0 -6 -7 -8 -16 -5 -8 3 -12 2 -9 -4 3 -6 14 -10 23 -10 18 0 102
-77 167 -153 22 -26 48 -50 59 -53 13 -4 15 -9 7 -13 -15 -9 4 -27 34 -33 11
-2 19 -11 19 -20 -1 -10 4 -14 11 -11 7 2 16 -4 19 -15 4 -10 18 -24 31 -30
14 -6 25 -18 25 -27 0 -8 7 -15 15 -15 8 0 15 -7 15 -15 0 -8 5 -15 12 -15 15
0 68 -50 68 -64 0 -6 25 -31 56 -56 31 -25 68 -60 82 -78 14 -18 27 -30 30
-28 11 11 131 -98 132 -119 0 -6 14 -19 31 -29 16 -10 76 -62 132 -116 56 -54
113 -107 127 -118 14 -11 77 -71 141 -133 64 -63 146 -141 183 -174 36 -33 81
-73 100 -90 112 -101 181 -163 203 -180 14 -11 39 -34 57 -50 17 -17 44 -39
59 -48 30 -20 39 -17 80 28 18 19 18 19 0 -10 -9 -16 -20 -32 -23 -35 -7 -6
-11 -50 -5 -50 4 0 36 42 193 250 52 69 129 168 171 220 42 52 102 131 133
175 32 44 92 125 133 180 42 55 79 105 83 110 4 6 21 28 37 50 17 22 34 43 39
46 4 4 3 10 -3 13 -6 4 -11 2 -11 -5 0 -7 -3 -9 -6 -6 -10 10 -45 -34 -37 -46
3 -6 1 -7 -5 -3 -15 9 16 76 35 76 8 0 12 3 10 8 -8 12 12 54 23 47 5 -3 7 0
4 8 -3 8 2 17 10 20 9 4 16 13 16 22 0 8 6 15 13 15 6 0 25 23 42 50 16 28 32
50 36 50 4 0 12 14 19 30 7 17 16 30 20 30 5 0 19 17 31 38 13 20 29 43 36 50
7 7 13 20 13 28 0 8 4 14 8 14 5 0 15 12 23 27 8 15 31 45 52 67 26 27 37 46
33 59 -3 13 0 17 10 13 8 -3 14 1 14 9 0 8 4 15 10 15 5 0 12 11 16 25 3 14 9
23 13 20 5 -2 18 16 30 40 16 33 26 43 39 38 13 -5 14 -3 6 6 -9 10 -6 18 12
36 13 13 24 31 24 39 0 8 6 19 13 23 6 4 17 17 23 28 6 11 20 24 32 30 12 5
20 15 18 22 -3 6 2 17 10 23 8 7 14 25 14 41 0 19 5 29 15 29 12 0 13 -4 6
-19 -9 -16 -8 -18 7 -14 13 3 18 14 18 38 0 19 8 43 18 53 12 14 14 21 5 24
-20 7 0 28 27 28 16 0 27 8 33 23 5 12 20 32 34 45 16 16 23 30 19 44 -4 17
-2 19 18 13 19 -6 21 -4 16 13 -4 11 -2 23 4 27 5 3 10 20 10 36 0 17 4 28 9
25 12 -8 61 40 61 59 0 28 22 53 43 47 21 -5 21 3 2 66 -7 20 -4 22 24 22 21
0 31 5 31 15 0 8 6 15 14 15 24 0 27 28 3 34 -20 5 -20 6 8 30 27 23 28 26 13
43 -13 15 -14 20 -3 30 11 10 15 10 18 0 3 -7 6 -6 6 4 1 9 8 22 16 29 23 19
18 33 -10 28 -14 -3 -25 -1 -25 3 0 5 7 9 16 9 18 0 36 16 52 47 16 29 15 33
-5 33 -17 1 -17 1 0 11 23 13 22 29 -3 29 -11 0 -20 7 -20 15 0 12 8 14 40 9
27 -4 40 -3 40 5 0 6 -17 11 -40 11 -22 0 -40 3 -40 6 0 3 14 17 30 31 38 32
38 43 -2 44 -18 1 -26 3 -16 6 36 9 31 62 -6 64 -20 1 -20 1 -1 8 34 12 75 34
75 41 0 4 -12 13 -27 20 l-28 13 30 7 c29 5 29 6 7 12 -36 10 -26 51 13 59
l30 7 -27 1 c-26 1 -28 4 -28 41 0 29 -4 40 -15 40 -9 0 -12 6 -9 15 4 8 10
12 15 9 5 -3 12 8 15 24 4 18 14 32 25 35 20 5 27 47 9 47 -5 0 -10 5 -10 11
0 5 4 8 8 5 4 -2 14 0 22 5 12 8 11 9 -5 7 -30 -4 -34 63 -6 94 27 28 27 48 1
48 -11 0 -20 5 -20 10 0 6 -7 10 -15 10 -16 0 -20 16 -6 24 5 3 14 -1 21 -9
21 -25 37 -17 43 20 3 19 14 45 24 58 l17 24 17 -21 c10 -12 20 -19 22 -16 10
10 -6 60 -19 60 -29 0 -13 19 21 26 32 6 35 9 35 39 0 27 5 36 30 47 17 7 30
21 30 30 0 9 9 23 21 31 15 11 17 17 8 22 -14 9 25 34 54 35 20 0 22 11 5 28
-8 8 -9 12 -1 12 6 0 25 12 42 26 17 14 35 23 41 19 5 -3 10 1 10 9 0 9 5 16
10 16 6 0 10 8 10 19 0 13 10 21 34 25 18 4 41 15 51 26 10 11 24 20 32 20 7
0 13 7 13 16 0 8 4 13 9 9 5 -3 12 -1 16 5 3 5 21 17 40 26 19 9 35 22 35 29
0 8 14 16 30 20 17 4 30 11 30 15 0 5 6 7 14 4 7 -3 16 2 19 10 4 9 15 16 25
16 11 0 25 7 32 15 8 9 21 13 36 9 13 -3 24 -2 24 3 0 19 156 72 305 103 22 5
57 13 77 18 20 5 39 7 42 5 2 -3 10 -1 18 3 7 4 30 10 51 12 21 2 48 7 60 11
36 14 -62 20 -378 25 -159 2 -303 6 -320 9 -89 17 -173 26 -194 20 -14 -4 -22
-2 -18 3 3 6 -39 15 -101 22 -132 16 -182 30 -175 48 6 16 -13 19 -22 4 -12
-19 -35 -10 -41 17 -7 25 -8 25 -21 7 -11 -16 -15 -16 -22 -5 -5 8 -7 20 -4
27 2 6 0 15 -6 19 -7 3 -11 -2 -11 -14 0 -12 -4 -21 -10 -21 -5 0 -10 5 -10
10 0 6 -12 10 -26 10 -18 0 -28 6 -31 20 -4 15 -11 19 -27 15 -11 -2 -15 -2
-8 1 6 3 12 9 12 14 0 14 -61 70 -76 70 -19 0 -28 44 -14 69 6 12 8 26 5 31
-3 5 -3 27 1 49 5 28 12 41 23 41 14 1 13 3 -2 15 -13 9 -17 20 -12 37 5 18 4
20 -5 8 -9 -13 -10 -12 -8 5 1 11 -2 20 -7 20 -5 0 -9 -6 -7 -12 2 -7 -2 -13
-8 -13 -5 0 -10 7 -10 16 0 10 -6 14 -14 11 -9 -4 -23 8 -38 28 -21 31 -49 47
-88 50 -18 1 -73 26 -80 37 -3 4 -26 16 -52 27 -25 10 -49 24 -52 30 -4 6 -20
11 -35 11 -35 0 -83 24 -73 36 4 4 0 3 -8 -3 -13 -10 -18 -8 -27 6 -13 21 -63
34 -63 17 0 -6 -7 -3 -14 7 -7 9 -18 17 -23 17 -6 0 -16 7 -23 15 -10 12 -15
13 -21 4 -5 -9 -13 -7 -30 5 -13 9 -31 16 -41 16 -9 0 -23 6 -31 14 -15 16
-87 48 -87 40 0 -3 -10 2 -22 10 -12 9 -33 16 -46 16 -12 0 -33 9 -45 20 -12
11 -28 19 -37 18 -17 -3 -80 23 -80 33 0 4 -10 9 -22 13 -13 3 -24 6 -25 6 -2
1 -37 16 -78 35 -42 19 -81 35 -87 35 -6 0 -19 7 -28 15 -9 8 -25 16 -36 18
-10 2 -29 9 -42 15 -12 7 -28 12 -35 10 -6 -1 -22 3 -34 10 -12 7 -28 9 -36 6
-8 -3 -17 1 -20 9 -3 9 -21 18 -39 22 -18 4 -39 12 -46 18 -17 13 -110 47
-131 47 -7 0 -33 9 -57 20 -24 11 -64 29 -88 40 -41 19 -77 25 -87 15z m-2912
-867 c-3 -7 -5 -2 -5 12 0 14 2 19 5 13 2 -7 2 -19 0 -25z m4858 -38 c3 -5 -1
-10 -9 -10 -8 0 -18 5 -21 10 -3 6 1 10 9 10 8 0 18 -4 21 -10z m-25 -51 c0
-5 -4 -9 -10 -9 -5 0 -10 7 -10 16 0 8 5 12 10 9 6 -3 10 -10 10 -16z m-4870
-1159 c0 -5 -2 -10 -4 -10 -3 0 -8 5 -11 10 -3 6 -1 10 4 10 6 0 11 -4 11 -10z
m145 -199 c7 -12 -12 -24 -25 -16 -11 7 -4 25 10 25 5 0 11 -4 15 -9z m165
-447 c0 -8 -7 -22 -15 -30 -13 -14 -15 -14 -15 -1 0 9 -3 22 -6 31 -4 12 0 16
15 16 12 0 21 -6 21 -16z m-20 -108 c0 -3 -4 -8 -10 -11 -5 -3 -10 -1 -10 4 0
6 5 11 10 11 6 0 10 -2 10 -4z m110 -306 c0 -5 -4 -10 -10 -10 -5 0 -10 5 -10
10 0 6 5 10 10 10 6 0 10 -4 10 -10z m4440 -41 c0 -5 -4 -9 -10 -9 -5 0 -10 7
-10 16 0 8 5 12 10 9 6 -3 10 -10 10 -16z"/>
<path d="M11255 16910 c3 -5 10 -10 16 -10 5 0 9 5 9 10 0 6 -7 10 -16 10 -8
0 -12 -4 -9 -10z"/>
<path d="M4128 16833 c7 -3 16 -2 19 1 4 3 -2 6 -13 5 -11 0 -14 -3 -6 -6z"/>
<path d="M4890 16780 c19 -13 30 -13 30 0 0 6 -10 10 -22 10 -19 0 -20 -2 -8
-10z"/>
<path d="M4365 16590 c-16 -7 -17 -9 -3 -9 9 -1 20 4 23 9 7 11 7 11 -20 0z"/>
<path d="M4290 16570 c-13 -9 -13 -10 0 -9 8 0 24 4 35 9 l20 9 -20 0 c-11 0
-27 -4 -35 -9z"/>
<path d="M4280 14971 c36 -32 66 -57 68 -56 2 2 -18 23 -44 47 -26 23 -53 49
-60 56 -7 6 -16 12 -21 12 -4 0 22 -27 57 -59z"/>
<path d="M5498 15003 c7 -3 16 -2 19 1 4 3 -2 6 -13 5 -11 0 -14 -3 -6 -6z"/>
<path d="M4365 14890 c3 -5 8 -10 11 -10 2 0 4 5 4 10 0 6 -5 10 -11 10 -5 0
-7 -4 -4 -10z"/>
<path d="M4390 14874 c0 -8 33 -40 178 -174 133 -121 165 -139 47 -25 -118
115 -225 209 -225 199z"/>
<path d="M4715 14570 c3 -5 8 -10 11 -10 2 0 4 5 4 10 0 6 -5 10 -11 10 -5 0
-7 -4 -4 -10z"/>
<path d="M4740 14556 c0 -4 10 -17 23 -30 35 -37 101 -92 96 -81 -6 14 -119
120 -119 111z"/>
<path d="M11418 14553 c7 -3 16 -2 19 1 4 3 -2 6 -13 5 -11 0 -14 -3 -6 -6z"/>
<path d="M11233 14433 c9 -2 25 -2 35 0 9 3 1 5 -18 5 -19 0 -27 -2 -17 -5z"/>
<path d="M4900 14406 c0 -2 8 -10 18 -17 15 -13 16 -12 3 4 -13 16 -21 21 -21
13z"/>
<path d="M5528 14363 c7 -3 16 -2 19 1 4 3 -2 6 -13 5 -11 0 -14 -3 -6 -6z"/>
<path d="M10961 14294 c0 -11 3 -14 6 -6 3 7 2 16 -1 19 -3 4 -6 -2 -5 -13z"/>
<path d="M10898 14283 c6 -2 18 -2 25 0 6 3 1 5 -13 5 -14 0 -19 -2 -12 -5z"/>
<path d="M10185 13999 c-4 -6 -5 -12 -2 -15 2 -3 7 2 10 11 7 17 1 20 -8 4z"/>
<path d="M5382 13966 c7 -8 15 -12 17 -11 5 6 -10 25 -20 25 -5 0 -4 -6 3 -14z"/>
<path d="M10030 13909 c0 -5 5 -7 10 -4 6 3 10 8 10 11 0 2 -4 4 -10 4 -5 0
-10 -5 -10 -11z"/>
<path d="M5695 13580 c3 -5 10 -10 16 -10 5 0 9 5 9 10 0 6 -7 10 -16 10 -8 0
-12 -4 -9 -10z"/>
<path d="M9725 13079 c-11 -17 1 -21 15 -4 8 9 8 15 2 15 -6 0 -14 -5 -17 -11z"/>
<path d="M9414 12996 c-16 -12 -17 -17 -5 -28 11 -11 13 -10 9 2 -3 8 2 20 11
27 23 17 9 16 -15 -1z"/>
<path d="M9334 12894 c-39 -45 -59 -74 -51 -74 9 0 62 54 60 61 -2 4 9 17 23
28 13 11 21 22 16 25 -4 3 -26 -15 -48 -40z"/>
<path d="M9236 12769 c-38 -44 -44 -61 -24 -56 18 3 39 25 42 41 1 8 8 21 15
30 8 9 11 19 9 22 -3 3 -22 -14 -42 -37z"/>
<path d="M9170 12680 c-12 -7 -12 -12 -2 -22 9 -9 12 -9 12 4 0 9 6 19 13 21
6 3 8 6 2 6 -5 0 -17 -4 -25 -9z"/>
<path d="M9129 12626 c-13 -25 -14 -33 -4 -33 7 0 11 6 8 14 -3 7 2 16 11 19
9 3 16 12 16 20 0 24 -14 15 -31 -20z"/>
<path d="M8755 11840 c-3 -5 -2 -10 4 -10 5 0 13 5 16 10 3 6 2 10 -4 10 -5 0
-13 -4 -16 -10z"/>
<path d="M8146 11013 c-6 -14 -5 -15 5 -6 7 7 10 15 7 18 -3 3 -9 -2 -12 -12z"/>
</g>
</svg>
